<?xml version="1.0" encoding="UTF-8" standalone="no"?>
<!DOCTYPE svg PUBLIC "-//W3C//DTD SVG 1.1//EN" "http://www.w3.org/Graphics/SVG/1.1/DTD/svg11.dtd">
<svg width="100%" height="100%" viewBox="0 0 1920 1080" version="1.1" xmlns="http://www.w3.org/2000/svg" xmlns:xlink="http://www.w3.org/1999/xlink" xml:space="preserve" style="fill-rule:evenodd;clip-rule:evenodd;stroke-linecap:round;stroke-linejoin:round;stroke-miterlimit:1.5;">
    <rect id="Sky" x="0" y="0" width="1920" height="1080" style="fill:rgb(228,233,212);"/>
    <path id="Background-Hill" d="M0,710.273C0,710.273 999,576.667 1319,587C1639,597.333 1920,684.273 1920,684.273L1920,1080L0,1080L0,710.273Z" style="fill:rgb(112,134,61);"/>
    <path id="Middle-Hill" d="M0,562.422C0,562.422 648.5,633.854 1000,694.354C1323.96,750.114 1920,903 1920,903L1920,1080L0,1080L0,562.422Z" style="fill:rgb(125,149,69);"/>
    <path id="Foreground-Hill" d="M0,729C0,729 799.354,671.068 1119.35,687.068C1421.18,702.159 1920,749 1920,749L1920,1080L0,1080L0,729Z" style="fill:rgb(131,158,74);"/>
    <path id="Cloud" d="M640,240C640,240 620.179,239.296 620,220C619.818,200.382 640,200 640,200L680,200C680,200 676.946,184.176 680,179C696.937,150.296 740,170 740,170C740,170 738.333,155 740,150C741.491,145.528 745.427,142.143 750,141C756.667,139.333 780,140 780,140C780,140 768.436,128.537 800,120C835.883,110.295 854.949,116.903 870,120C895.562,125.26 890,140 890,140C890,140 907.019,132.669 920,150C926.38,158.518 920,170 920,170C920,170 934.262,159.012 950,180C953.999,185.334 950,200 950,200L970,200C970,200 990.048,200.061 990,220C989.951,240.122 970,240 970,240L640,240Z" style="fill:rgb(239,242,231);"/>
    <g transform="matrix(0.031494,0,0,0.031494,448.622,906.6)">
        <path d="M54,870C54,870 60.471,821.111 54,798C47,773 12,720 12,720C12,720 67.966,717.63 90,732C113,747 150,810 150,810C150,810 164.32,752.81 156,726C147,697 96,636 96,636C96,636 157,622 180,636C203,650 234,720 234,720C234,720 256,549 228,474C200,399 66,270 66,270C66,270 254,335 312,396C370,457 414,636 414,636C414,636 427,399 456,294C484.114,192.208 588,6 588,6C588,6 526.913,206 525.913,294C524.979,376.15 582,534 582,534C582,534 641,422 678,384C712.46,348.609 804,306 804,306C804,306 746,433 732,486C720.208,530.642 720,624 720,624C720,624 810.027,531.983 864,498C918,464 1044,420 1044,420C1044,420 959.409,487.181 936,534C911,584 894,720 894,720C894,720 953,668 978,654C997.896,642.858 1044,636 1044,636C1044,636 1001,698 996,726C991.309,752.268 1014,804 1014,804C1014,804 1044,750 1062,738C1078.72,726.851 1122,732 1122,732C1122,732 1074.65,768.465 1068,786C1061.72,802.554 1082.1,837.208 1082.1,837.208" style="fill:rgb(131,158,74);stroke:rgb(112,134,61);stroke-width:111.13px;"/>
    </g>
    <g transform="matrix(-0.031494,0,-0,0.031494,888.336,801.6)">
        <path d="M54,870C54,870 60.471,821.111 54,798C47,773 12,720 12,720C12,720 67.966,717.63 90,732C113,747 150,810 150,810C150,810 164.32,752.81 156,726C147,697 96,636 96,636C96,636 157,622 180,636C203,650 234,720 234,720C234,720 256,549 228,474C200,399 66,270 66,270C66,270 254,335 312,396C370,457 414,636 414,636C414,636 427,399 456,294C484.114,192.208 588,6 588,6C588,6 526.913,206 525.913,294C524.979,376.15 582,534 582,534C582,534 641,422 678,384C712.46,348.609 804,306 804,306C804,306 746,433 732,486C720.208,530.642 720,624 720,624C720,624 810.027,531.983 864,498C918,464 1044,420 1044,420C1044,420 959.409,487.181 936,534C911,584 894,720 894,720C894,720 953,668 978,654C997.896,642.858 1044,636 1044,636C1044,636 1001,698 996,726C991.309,752.268 1014,804 1014,804C1014,804 1044,750 1062,738C1078.72,726.851 1122,732 1122,732C1122,732 1074.65,768.465 1068,786C1061.72,802.554 1082.1,837.208 1082.1,837.208" style="fill:rgb(131,158,74);stroke:rgb(112,134,61);stroke-width:111.13px;"/>
    </g>
    <g transform="matrix(1.12955,0,0,1.12955,-52.4696,-61.4089)">
        <g transform="matrix(1,0,0,1,-315,74)">
            <path d="M770,400L820,580L720,580L770,400Z" style="fill:rgb(105,136,115);"/>
        </g>
        <rect x="449.688" y="654" width="10.624" height="67" style="fill:rgb(168,99,16);"/>
    </g>
    <g transform="matrix(0.597166,0,0,0.597166,1298.15,206.943)">
        <g transform="matrix(1,0,0,1,-315,74)">
            <path d="M770,400L820,580L720,580L770,400Z" style="fill:rgb(75,116,93);"/>
        </g>
        <rect x="450.814" y="654" width="8.373" height="67" style="fill:rgb(146,73,74);"/>
    </g>
</svg>
