<?xml version="1.0" encoding="UTF-8" standalone="no"?>
<!DOCTYPE svg PUBLIC "-//W3C//DTD SVG 1.1//EN" "http://www.w3.org/Graphics/SVG/1.1/DTD/svg11.dtd">
<svg width="100%" height="100%" viewBox="0 0 700 700" version="1.1" xmlns="http://www.w3.org/2000/svg" xmlns:xlink="http://www.w3.org/1999/xlink" xml:space="preserve" style="fill-rule:evenodd;clip-rule:evenodd;stroke-linecap:round;stroke-linejoin:round;stroke-miterlimit:1.5;">
    <g id="shadow" transform="matrix(1,0,0,1.144,0,-94.48)">
        <ellipse cx="351.5" cy="607.5" rx="259.5" ry="62.5" style="fill:rgb(119,145,67);"/>
    </g>
    <g id="body" transform="matrix(1,0,0,1,-735.5,-338)">
        <path d="M1027,392C1027,392 1049.71,348.921 1090,349C1133.18,349.085 1152,390 1152,390C1152,390 1190.48,343.811 1243,373.981C1283.71,397.365 1271,447 1271,447C1271,447 1328.33,433.315 1348,488C1362.03,527.003 1325,560 1325,560C1325,560 1374.32,544.154 1391,593C1404.41,632.275 1375,656 1375,656C1375,656 1406.8,665.885 1397,726C1391.44,760.084 1340,769 1340,769C1340,769 1370.57,786.132 1346,833.215C1329.62,864.618 1286,854 1286,854C1286,854 1290.49,880.779 1260,894C1229.05,907.42 1200,880 1200,880C1200,880 1168.11,914.074 1140,915C1106.31,916.11 1080,882.137 1080,882.137C1080,882.137 1049.17,907.39 1000,896C964.48,887.772 960,850 960,850C960,850 936.112,861.713 909,848C880.336,833.502 890,804 890,804C890,804 838.079,815.453 813,776C784.458,731.1 820,696 820,696C820,696 781.662,696.135 775,660C763.435,597.274 804.999,594 804.999,594C804.999,594 796.661,562.669 814,540C826.567,523.57 854,524 854,524C854,524 845.181,486.876 868,460C896.454,426.487 926,431 926,431C926,431 922.497,405.393 954,387C992.822,364.334 1027,392 1027,392Z" style="fill:white;"/>
    </g>
    <path class="mouth" d="M400,420C384.157,419.588 370.204,446.332 370,453C369.678,463.536 436.667,456.667 440,450C441.902,446.196 455.435,427.182 445.349,420C437.757,414.594 407.682,420.2 400,420Z" style="fill:rgb(40,38,39);stroke:black;stroke-width:4px;"/>
    <g class="grass2" transform="matrix(1,0,0,1,2.33884,20)">
        <path d="M394.593,405.792L394.854,405.837L395.176,405.894L395.61,405.971L396.152,406.07L396.795,406.189L397.533,406.328L398.357,406.487L398.804,406.574L399.268,406.665L399.752,406.761L400.254,406.862L400.773,406.967L401.31,407.077L401.862,407.191L402.429,407.309L403.011,407.432L403.607,407.56L404.216,407.692L404.836,407.827L405.469,407.967L406.111,408.112L406.764,408.26L407.426,408.412L408.096,408.568L408.773,408.729L409.458,408.893L410.148,409.06L410.844,409.232L411.544,409.407L412.248,409.587L412.955,409.769L413.663,409.955L414.02,410.05L414.375,410.146L414.731,410.242L415.087,410.339L415.442,410.437L415.798,410.536L416.154,410.636L416.509,410.737L416.864,410.838L417.218,410.94L417.572,411.044L417.926,411.148L418.278,411.253L418.63,411.358L418.981,411.465L419.33,411.572L419.679,411.68L420.027,411.79L420.373,411.899L420.718,412.01L421.061,412.122L421.403,412.234L421.743,412.347L422.082,412.461L422.419,412.576L422.753,412.692L423.086,412.808L423.417,412.926L423.746,413.044L424.073,413.163L424.397,413.283L424.719,413.403L425.038,413.525L425.355,413.647L425.669,413.771L425.981,413.895L426.289,414.02L426.595,414.146L426.898,414.273L427.199,414.4L427.496,414.529L427.789,414.659L428.08,414.79L428.367,414.921L428.652,415.054L428.932,415.188L429.086,415.263L429.241,415.339L429.396,415.417L429.55,415.497L429.705,415.578L429.86,415.661L430.016,415.746L430.171,415.832L430.327,415.92L430.483,416.009L430.639,416.1L430.796,416.193L430.953,416.286L431.11,416.382L431.268,416.479L431.426,416.577L431.584,416.677L431.742,416.778L431.901,416.88L432.06,416.984L432.22,417.09L432.38,417.196L432.54,417.304L432.701,417.414L432.862,417.524L433.023,417.636L433.185,417.75L433.347,417.864L433.51,417.98L433.675,418.099L433.999,418.335L434.327,418.578L434.657,418.826L434.988,419.078L435.32,419.335L435.654,419.596L435.988,419.862L436.324,420.131L436.662,420.405L437,420.683L437.339,420.964L437.679,421.25L438.02,421.538L438.362,421.831L438.705,422.126L439.049,422.425L439.393,422.727L439.737,423.032L440.083,423.34L440.428,423.651L440.774,423.964L441.12,424.28L441.467,424.598L441.813,424.918L442.16,425.241L442.506,425.565L442.852,425.892L443.198,426.22L443.544,426.55L443.89,426.881L444.235,427.214L444.579,427.548L444.923,427.883L445.266,428.219L445.608,428.556L445.95,428.893L446.29,429.232L446.63,429.57L446.968,429.909L447.305,430.249L447.641,430.588L447.975,430.928L448.308,431.267L448.639,431.606L448.969,431.945L449.296,432.283L449.622,432.62L449.946,432.957L450.268,433.292L450.588,433.627L450.907,433.961L451.535,434.623L452.153,435.279L452.761,435.929L453.358,436.569L453.943,437.201L454.515,437.822L455.073,438.431L455.618,439.028L456.147,439.611L456.661,440.18L457.159,440.733L457.639,441.27L458.102,441.788L458.546,442.288L458.971,442.768L459.375,443.227L459.76,443.665L460.122,444.079L460.463,444.469L460.78,444.834L461.074,445.174L461.588,445.769L461.998,446.247L462.3,446.6L462.553,446.899L462.959,448.104L462.446,449.227L462.439,449.234L462.431,449.24L461.263,449.639L460.105,449.115L460.098,449.108L459.836,448.837L459.519,448.511L459.085,448.067L458.54,447.513L458.229,447.198L457.892,446.858L457.531,446.495L457.147,446.11L456.74,445.703L456.311,445.276L455.86,444.829L455.39,444.364L454.9,443.882L454.392,443.383L453.865,442.87L453.322,442.342L452.762,441.8L452.187,441.247L451.597,440.682L450.994,440.107L450.378,439.522L449.749,438.93L449.109,438.33L448.459,437.724L447.798,437.112L447.466,436.806L447.13,436.498L446.793,436.189L446.454,435.88L446.112,435.57L445.77,435.259L445.425,434.949L445.079,434.638L444.732,434.327L444.384,434.016L444.034,433.706L443.683,433.396L443.331,433.086L442.979,432.778L442.626,432.469L442.272,432.162L441.917,431.856L441.562,431.551L441.207,431.247L440.852,430.945L440.496,430.644L440.141,430.345L439.785,430.048L439.43,429.752L439.075,429.459L438.721,429.168L438.367,428.879L438.014,428.593L437.662,428.309L437.31,428.028L436.96,427.75L436.611,427.475L436.263,427.203L435.916,426.934L435.571,426.669L435.227,426.407L434.885,426.149L434.545,425.895L434.207,425.644L433.872,425.398L433.538,425.156L433.207,424.918L432.878,424.685L432.552,424.456L432.228,424.233L431.908,424.014L431.591,423.8L431.277,423.592L430.966,423.388L430.659,423.191L430.353,422.997L430.205,422.905L430.056,422.812L429.908,422.721L429.76,422.632L429.614,422.544L429.469,422.458L429.325,422.373L429.182,422.29L429.041,422.208L428.9,422.128L428.761,422.049L428.623,421.973L428.486,421.898L428.351,421.824L428.217,421.752L428.084,421.682L427.953,421.614L427.823,421.548L427.695,421.483L427.568,421.42L427.442,421.359L427.319,421.3L427.196,421.242L427.076,421.186L426.957,421.133L426.84,421.081L426.725,421.031L426.611,420.983L426.5,420.937L426.39,420.892L426.148,420.796L425.901,420.699L425.649,420.603L425.393,420.507L425.132,420.412L424.866,420.317L424.597,420.223L424.324,420.129L424.046,420.035L423.765,419.942L423.48,419.849L423.191,419.757L422.899,419.666L422.603,419.575L422.305,419.485L422.003,419.395L421.698,419.306L421.39,419.217L421.079,419.129L420.766,419.042L420.45,418.955L420.132,418.87L419.811,418.784L419.488,418.7L419.163,418.616L418.836,418.533L418.507,418.45L418.176,418.368L417.843,418.287L417.509,418.207L417.173,418.127L416.836,418.049L416.498,417.97L416.159,417.893L415.818,417.816L415.476,417.74L415.134,417.665L414.791,417.591L414.447,417.517L414.103,417.444L413.758,417.372L413.413,417.301L413.067,417.23L412.722,417.16L412.376,417.091L412.032,417.023L411.34,416.889L410.651,416.758L409.964,416.63L409.28,416.505L408.6,416.384L407.925,416.265L407.255,416.15L406.592,416.038L405.936,415.93L405.287,415.824L404.648,415.722L404.017,415.623L403.397,415.527L402.788,415.435L402.191,415.346L401.607,415.26L401.036,415.178L400.479,415.099L399.938,415.023L399.412,414.951L398.903,414.882L398.411,414.816L397.937,414.753L397.483,414.694L397.049,414.639L396.24,414.537L395.522,414.45L394.898,414.376L394.375,414.315L393.959,414.268L393.659,414.235L393.407,414.208L393.397,414.207L390.609,412.554L389.79,409.417L389.793,409.397L391.446,406.609L394.583,405.79L394.593,405.792Z" style="fill:rgb(119,145,67);"/>
    </g>
    <g class="grass1" transform="matrix(1,0,0,1,-7.66116,28.0401)">
        <path d="M398.938,398.971L398.947,398.975L399.772,399.36L402.041,400.418L403.62,401.155L405.443,402.007L407.472,402.957L409.668,403.985L411.992,405.076L414.405,406.21L416.869,407.371L419.345,408.539L420.575,409.121L421.794,409.699L422.997,410.269L424.178,410.831L425.334,411.381L426.458,411.918L427.547,412.439L428.6,412.945L428.747,413.016L428.899,413.091L429.051,413.168L429.203,413.247L429.356,413.328L429.509,413.411L429.661,413.496L429.815,413.583L429.968,413.671L430.122,413.761L430.276,413.854L430.43,413.947L430.585,414.043L430.74,414.14L430.895,414.24L431.051,414.34L431.207,414.443L431.364,414.547L431.521,414.653L431.678,414.76L431.836,414.869L431.994,414.98L432.152,415.092L432.311,415.206L432.47,415.322L432.63,415.439L432.79,415.557L432.95,415.677L433.111,415.799L433.272,415.921L433.434,416.046L433.596,416.172L433.758,416.299L433.921,416.428L434.084,416.558L434.248,416.689L434.412,416.822L434.576,416.956L434.74,417.092L434.907,417.23L435.236,417.506L435.568,417.789L435.902,418.076L436.237,418.369L436.573,418.666L436.91,418.967L437.248,419.273L437.587,419.583L437.926,419.897L438.267,420.216L438.609,420.538L438.951,420.863L439.294,421.193L439.637,421.525L439.981,421.861L440.325,422.201L440.67,422.543L441.015,422.888L441.36,423.235L441.705,423.586L442.05,423.939L442.394,424.294L442.739,424.651L443.084,425.01L443.428,425.371L443.772,425.734L444.115,426.098L444.457,426.464L444.799,426.831L445.14,427.199L445.481,427.569L445.82,427.939L446.158,428.309L446.496,428.681L446.832,429.053L447.166,429.425L447.5,429.797L447.831,430.169L448.162,430.541L448.49,430.913L448.817,431.284L449.142,431.655L449.466,432.025L449.787,432.394L450.106,432.762L450.423,433.128L450.738,433.494L451.05,433.858L451.36,434.22L451.667,434.581L452.274,435.296L452.869,436.003L453.452,436.699L454.023,437.384L454.58,438.057L455.124,438.717L455.652,439.361L456.165,439.99L456.661,440.602L457.14,441.195L457.602,441.769L458.045,442.322L458.469,442.854L458.873,443.362L459.256,443.847L459.618,444.306L459.957,444.738L460.274,445.143L460.567,445.519L461.079,446.179L461.488,446.709L461.788,447.101L462.034,447.424L461.905,448.721L460.61,448.576L460.347,448.269L460.029,447.9L459.593,447.399L459.047,446.774L458.735,446.418L458.398,446.035L458.036,445.626L457.651,445.192L457.242,444.733L456.812,444.252L456.361,443.75L455.89,443.227L455.399,442.684L454.889,442.123L454.362,441.546L453.817,440.952L453.256,440.344L452.68,439.722L452.089,439.088L451.484,438.442L450.867,437.786L450.237,437.122L449.595,436.449L449.271,436.11L448.944,435.77L448.614,435.428L448.282,435.085L447.948,434.741L447.612,434.397L447.274,434.051L446.933,433.704L446.591,433.357L446.248,433.01L445.902,432.663L445.556,432.315L445.207,431.968L444.858,431.621L444.507,431.274L444.155,430.927L443.803,430.582L443.449,430.237L443.095,429.893L442.74,429.55L442.384,429.208L442.028,428.868L441.671,428.53L441.315,428.193L440.958,427.857L440.601,427.524L440.244,427.193L439.888,426.865L439.532,426.538L439.176,426.215L438.821,425.894L438.466,425.575L438.112,425.26L437.759,424.948L437.407,424.64L437.056,424.335L436.706,424.033L436.358,423.736L436.011,423.442L435.665,423.152L435.321,422.867L434.979,422.586L434.639,422.309L434.301,422.037L433.965,421.77L433.632,421.508L433.3,421.252L432.972,421L432.646,420.754L432.321,420.513L432.162,420.396L432.003,420.279L431.844,420.164L431.686,420.051L431.529,419.939L431.372,419.828L431.217,419.719L431.062,419.612L430.908,419.506L430.755,419.402L430.603,419.3L430.453,419.199L430.303,419.1L430.154,419.003L430.006,418.907L429.859,418.813L429.713,418.721L429.568,418.631L429.425,418.542L429.283,418.456L429.141,418.371L429.001,418.288L428.863,418.207L428.725,418.128L428.589,418.051L428.454,417.976L428.321,417.902L428.189,417.831L428.058,417.762L427.929,417.695L427.801,417.63L427.675,417.566L427.551,417.505L427.428,417.446L427.306,417.39L427.187,417.335L427.069,417.282L426.953,417.232L426.839,417.184L426.722,417.135L425.656,416.698L424.543,416.243L423.393,415.774L422.212,415.294L421.003,414.803L419.772,414.305L418.525,413.801L417.266,413.293L414.73,412.272L412.207,411.259L409.735,410.268L407.355,409.316L405.106,408.418L403.028,407.59L401.16,406.846L399.544,406.203L397.22,405.28L396.375,404.945L396.366,404.941L394.645,403.16L394.672,400.683L394.68,400.665L396.461,398.944L398.938,398.971Z" style="fill:rgb(119,145,67);"/>
    </g>
    <path id="head" d="M300,200C300,200 250,376.667 260,420C268.073,454.982 300.454,459.983 360,460C378.469,460.005 386.662,431.715 400,430C429.606,426.193 454.435,444.117 460,420C470,376.667 420,200 420,200C420,200 418.723,170.687 360,170C300.643,169.305 300,200 300,200Z" style="fill:rgb(40,38,39);stroke:black;stroke-width:4px;"/>
    <g id="leftear" transform="matrix(0.375,0.649519,-1.16667,0.673575,435,-51.1474)">
        <path d="M200,180C200,180 160,220 160,240C160,260 200,300 200,300C200,300 240,260 240,240C240,220 200,180 200,180Z" style="fill:rgb(40,38,39);stroke:black;stroke-width:3.67px;"/>
    </g>
    <g id="rightear" transform="matrix(0.375,-0.649519,-1.16667,-0.673575,695,531.976)">
        <path d="M200,180C200,180 160,220 160,240C160,260 200,300 200,300C200,300 240,260 240,240C240,220 200,180 200,180Z" style="fill:rgb(40,38,39);stroke:black;stroke-width:3.67px;"/>
    </g>
    <g class="eyeleft" transform="matrix(1,0,0,1,-29.5787,-10)">
        <ellipse cx="360" cy="285" rx="20" ry="25" style="fill:white;stroke:black;stroke-width:4px;"/>
    </g>
    <g class="eyeright" transform="matrix(1,0,0,1,30,-10)">
        <ellipse cx="360" cy="285" rx="20" ry="25" style="fill:white;stroke:black;stroke-width:4px;"/>
    </g>
    <ellipse class="nose" cx="360" cy="390" rx="20" ry="10" style="fill:rgb(255,220,255);"/>
    <circle id="pupilright" cx="382.5" cy="282.5" r="2.5" style="fill:rgb(40,38,39);stroke:rgb(40,38,39);stroke-width:3.5px;"/>
    <g id="pupilleft" transform="matrix(1,0,0,1,-45,0)">
        <circle cx="382.5" cy="282.5" r="2.5" style="fill:rgb(40,38,39);stroke:rgb(40,38,39);stroke-width:3.5px;"/>
    </g>
</svg>
